<?xml version="1.0" encoding="UTF-8"?>
<svg width="136px" height="58px" viewBox="0 0 136 58" version="1.1" xmlns="http://www.w3.org/2000/svg" xmlns:xlink="http://www.w3.org/1999/xlink" style="background: #FFFFFF;">
    <!-- Generator: Sketch 62 (91390) - https://sketch.com -->
    <title>5G_藍</title>
    <desc>Created with Sketch.</desc>
    <defs>
        <polygon id="path-1" points="0 0.724 44.6822 0.724 44.6822 56 0 56"></polygon>
        <polygon id="path-3" points="0.532926966 0.847 50.0601229 0.847 50.0601229 56.9213 0.532926966 56.9213"></polygon>
    </defs>
    <g id="5G_藍" stroke="none" stroke-width="1" fill="none" fill-rule="evenodd">
        <rect fill="#FFFFFF" x="0" y="0" width="136" height="58"></rect>
        <g id="Group-13">
            <polygon id="Fill-1" fill="#1A1919" points="97.5658 41.1709 133.0798 39.3949 98.1818 37.6499"></polygon>
            <polygon id="Fill-2" fill="#1A1919" points="95.4632 52.8066 130.8992 50.9256 96.1152 49.0776"></polygon>
            <polygon id="Fill-3" fill="#1A1919" points="96.5145 46.9883 131.9325 45.1603 97.1485 43.3643"></polygon>
            <polygon id="Fill-4" fill="#1A1919" points="98.7215 35.5088 134.1575 33.6278 99.3735 31.7798"></polygon>
            <polygon id="Fill-5" fill="#1A1919" points="99.7731 29.6916 135.1901 27.8636 100.4071 26.0666"></polygon>
            <g id="Group-12" transform="translate(0.000000, 0.153300)">
                <g id="Group-8" transform="translate(0.000000, 1.000000)">
                    <mask id="mask-2" fill="white">
                        <use xlink:href="#path-1"></use>
                    </mask>
                    <g id="Clip-7"></g>
                    <path d="M1.8592,33.666 L14.7022,33.666 C15.8372,31.753 16.8602,30.476 17.8792,29.678 C18.8962,28.881 20.2432,28.481 21.9192,28.481 C23.8332,28.481 25.1422,29.2 25.9552,30.476 C26.6582,31.912 26.9082,33.666 26.5282,35.82 C26.1342,38.054 25.2522,39.888 23.9902,41.165 C22.6202,42.6 20.9912,43.238 19.0772,43.238 C17.3222,43.238 16.0362,42.839 15.3792,42.042 C14.7222,41.244 14.3372,39.809 14.2372,37.654 L0.1982,37.654 C-1.1708,49.938 4.5422,56 17.3052,56 C23.3682,56 28.5722,54.086 32.9312,50.177 C37.0882,46.508 39.7662,41.723 40.7932,35.9 C41.7632,30.396 40.8242,25.77 37.9752,22.02 C35.1262,18.271 30.7562,16.357 25.0132,16.357 C23.1782,16.357 21.2872,16.677 19.4482,17.155 L20.3012,12.769 L42.5582,12.769 L44.6822,0.724 L9.2632,0.724 L1.8592,33.666 Z" id="Fill-6" fill="#3300FF" mask="url(#mask-2)"></path>
                </g>
                <g id="Group-11" transform="translate(46.000000, 0.000000)">
                    <mask id="mask-4" fill="white">
                        <use xlink:href="#path-3"></use>
                    </mask>
                    <g id="Clip-10"></g>
                    <path d="M22.7298,37.6973 L33.0208,37.6973 L32.0498,43.2013 C30.1308,43.6793 28.2538,43.9193 26.3388,43.9193 C17.4038,43.9193 13.8238,38.8943 15.5958,28.8433 C16.3408,24.6163 17.7438,21.1863 19.8968,18.4743 C22.2518,15.5223 25.2308,14.0083 28.7418,14.0083 C30.9758,14.0083 32.6318,14.5663 33.7388,15.5223 C34.7668,16.4803 35.3208,18.3143 35.5088,20.8673 L49.9478,20.8673 C50.4908,14.1673 49.0638,9.1413 45.6938,5.6333 C42.4278,2.4423 37.7628,0.8463 31.6208,0.8463 C23.3238,0.8463 16.4358,3.7183 10.7968,9.4613 C5.7478,14.5663 2.5358,21.0273 1.1568,28.8433 C-0.2352,36.7413 0.6848,43.2813 4.0918,48.3863 C7.7068,54.1293 13.7558,56.9213 22.1318,56.9213 C30.1098,56.9213 37.5708,55.3253 44.4628,51.9753 L49.1048,25.6523 L24.8538,25.6523 L22.7298,37.6973 Z" id="Fill-9" fill="#3300FF" mask="url(#mask-4)"></path>
                </g>
            </g>
        </g>
    </g>
</svg>