<?xml version="1.0" encoding="utf-8"?>
<!-- Generator: Adobe Illustrator 25.0.0, SVG Export Plug-In . SVG Version: 6.00 Build 0)  -->
<svg version="1.1" id="圖層_1" xmlns="http://www.w3.org/2000/svg" xmlns:xlink="http://www.w3.org/1999/xlink" x="0px" y="0px"
	 viewBox="0 0 520 200" style="enable-background:new 0 0 520 200;" xml:space="preserve">
<style type="text/css">
	.st0{display:none;fill:#FEFEFE;}
</style>
<g>
	<path d="M171.54,142.81c0,0.12,0,0.23,0,0.35c-0.8,3.32-2.2,6.42-3.57,9.53c-2.39,5.44-5.28,10.61-8.68,15.49
		c-3.04,4.36-6.16,8.65-9.75,12.58c-2.49,2.72-5.19,5.16-8.36,7.08c-5,3.03-10.37,3.86-16.08,2.79c-3.6-0.68-7.01-1.91-10.4-3.25
		c-4.23-1.67-8.56-2.91-13.1-3.25c-3.74-0.29-7.43,0.14-11.08,1.02c-3.01,0.72-5.9,1.77-8.77,2.9c-3.18,1.25-6.4,2.33-9.77,2.88
		c-6.67,1.09-12.5-0.79-17.67-5.05c-3.92-3.23-7.3-6.96-10.39-10.96c-3.79-4.9-7.4-9.92-10.42-15.35c-2.94-5.3-5.41-10.8-7.51-16.48
		c-1.91-5.18-3.49-10.47-4.58-15.89c-0.98-4.83-1.74-9.69-1.83-14.64c-0.08-3.99-0.18-7.98,0.16-11.95
		c0.57-6.66,2.17-13.07,5.01-19.15c1.58-3.39,3.44-6.6,5.71-9.58c5.11-6.71,11.55-11.7,19.36-14.91c4.43-1.82,9.04-2.79,13.83-3.19
		c4.92-0.41,9.55,0.7,14.18,2.05c3.33,0.97,6.54,2.27,9.8,3.41c2.71,0.95,5.44,1.86,8.29,2.34c0.62,0.11,1.21,0.1,1.83-0.03
		c3.66-0.76,7.15-2.09,10.66-3.33c4.23-1.5,8.45-3.01,12.85-3.99c5.64-1.27,11.29-1.22,16.95-0.22c6.67,1.17,12.92,3.4,18.54,7.27
		c3.71,2.55,6.87,5.67,9.54,9.28c0.63,0.85,0.6,1.1-0.32,1.68c-3,1.92-5.85,4.04-8.36,6.57c-5.96,5.98-9.53,13.15-10.52,21.57
		c-0.82,7-0.1,13.82,2.48,20.4c1.6,4.09,3.98,7.69,6.9,10.97c4,4.49,8.7,8.01,14.16,10.53
		C170.95,142.42,171.29,142.55,171.54,142.81z"/>
	<path class="st0" d="M1101.48,869.33c-10.99-3.1-20.8-8.78-30.41-14.63c-40.99-24.97-74.23-57.58-96.77-100.36
		c-15.6-29.61-23.56-61.34-25.85-94.65c-2.54-36.85,1.57-72.73,14.97-107.29c17.52-45.21,48.17-79.86,87.21-107.66
		c5.43-3.86,10.97-7.6,16.69-10.99c3.52-2.09,4.08-3.55,1.44-7.12c-27.3-37.02-61.97-64.77-104.4-82.4
		c-41.97-17.43-85.79-26.11-131.32-24.01c-31.19,1.44-61.09,9.72-90.45,19.89c-27.52,9.53-54.78,19.8-82.73,28.12
		c-12.79,3.81-25.02,3.53-37.7,0.11c-27.14-7.33-53.2-17.8-79.71-26.95c-24.04-8.3-48.4-15.51-73.82-17.97
		c-30.58-2.96-60.58,1.28-89.73,10.22c-81.02,24.86-138.86,76.97-176.19,152.44c-21.4,43.25-31.82,89.42-34.81,137.36
		c-5.96,95.69,14.55,186.56,50.25,274.65c31.02,76.55,76.07,144.13,131.18,205.24c12.46,13.82,26.44,26.08,41.54,37.05
		c33.6,24.41,70.32,31.56,110.65,21.1c22.01-5.71,43.12-13.86,64.34-21.81c32.18-12.06,65.27-19.39,99.87-17.86
		c30.77,1.36,59.97,9.61,88.39,20.99c22.26,8.92,44.89,16.44,68.69,20.32c36.9,6.02,70.02-3.17,100.39-23.9
		c25.94-17.71,46.36-41.05,65.67-65.47c37.49-47.4,70.04-97.79,93.55-153.69c6.07-14.43,11.6-29.06,16.88-43.79
		c0.59-1.63,0.65-3.55,2.16-4.78c0,97.12-0.02,194.23,0.1,291.35c0,3.59-0.56,4.49-4.37,4.49c-308.97-0.12-617.95-0.12-926.92,0.01
		c-4.05,0-4.64-1-4.64-4.77c0.1-366.99,0.1-733.98-0.03-1100.96c0-4.34,1.28-4.84,5.12-4.84c228.66,0.1,457.33,0.09,685.99,0.09
		c-0.71,3.52-3.93,2.82-6.05,3.1c-19.84,2.62-38.67,8.72-57.05,16.34c-56.4,23.37-99.38,61.76-128.88,115.26
		c-15.25,27.67-25.12,57.08-28.31,88.55c-1.11,10.91-0.98,21.91-0.32,32.89c0.21,3.59,2.06,4.46,5.23,4.62
		c18.55,0.95,36.69-1.18,54.48-6.59c30.64-9.33,56.7-26.25,80.53-47.28c21.7-19.15,39.87-41.17,55.16-65.59
		c18.77-29.97,30.27-62.51,33.66-97.85c1.28-13.33,1.33-26.62,0.3-39.95c-0.1-1.31,0.07-2.52,1-3.52c76.72,0,153.43,0.04,230.15-0.1
		c4.06-0.01,4.98,0.92,4.98,4.98C1101.47,330.93,1101.48,600.13,1101.48,869.33z"/>
	<path d="M133.33,10.73c0.77,7.36-0.64,14.3-4.17,20.78c-4.37,8-10.4,14.42-18.51,18.73c-4.32,2.3-8.96,3.36-13.88,3.18
		c-0.81-0.03-1.07-0.26-1.12-1.08c-0.48-6.84,1.17-13.19,4.35-19.19c6.06-11.41,15.55-18.4,27.95-21.64
		c1.26-0.33,2.58-0.32,3.81-0.78C132.28,10.73,132.81,10.73,133.33,10.73z"/>
</g>
</svg>
