<svg id="圖層_1" data-name="圖層 1" xmlns="http://www.w3.org/2000/svg" viewBox="0 0 228 207"><defs><style>.cls-1{fill:#ea3411;}.cls-2{fill:#fff;}.cls-3{fill:#d31c13;}</style></defs><title>徽章設計</title><circle class="cls-1" cx="114" cy="102.89" r="100.52"/><path class="cls-2" d="M114,187.26a84.38,84.38,0,1,1,84.37-84.38A84.47,84.47,0,0,1,114,187.26ZM114,22a80.86,80.86,0,1,0,80.86,80.86A80.95,80.95,0,0,0,114,22Z"/><polygon class="cls-3" points="225.4 106.93 2.6 106.93 14.26 135.19 2.6 163.45 225.4 163.45 214.16 135.19 225.4 106.93"/><path class="cls-2" d="M64,136.3a19.61,19.61,0,0,1-4.82,8.11,19,19,0,0,0,6.62,2.86,11.86,11.86,0,0,0-2,2.61,21.37,21.37,0,0,1-6.91-3.42,25.54,25.54,0,0,1-6.8,3.6,9.26,9.26,0,0,0-1.76-2.54v2.65H45.17v-3.25c-4.32.46-8.6,1-11.88,1.34L33,145.36c1-.07,2.09-.18,3.28-.28V133.76h-3v-2.65H64.85v2.65H48.3v13.65a19.84,19.84,0,0,0,6.26-3.07,20.07,20.07,0,0,1-3.82-5.93l.86-.25H49.52v-2.58H61.4l.54-.11Zm-23.22-6.6h-3.2V118.9H60.79v10.8H57.44v-8.43H40.77Zm-1.51,4.06v2h5.9v-2Zm0,6.31h5.9v-2h-5.9Zm0,4.73c1.87-.18,3.89-.39,5.9-.64v-1.69h-5.9ZM55.82,123v2H42.14v-2ZM42.14,126.7H55.86v2H42.14ZM53.7,138.17a16.43,16.43,0,0,0,3.1,4.3,15.6,15.6,0,0,0,3.17-4.3Z"/><path class="cls-2" d="M81.42,118.87A54.68,54.68,0,0,1,78,126.28v23.85H74.72V131.6a34.67,34.67,0,0,1-2.66,3.21,17.36,17.36,0,0,0-1.8-3.28,38.7,38.7,0,0,0,8-13.62Zm22,26.88v3.18H79.69v-3.18H90V140.6H81.81v-3.1H90v-3.6H93.4v3.6h8.39v3.1H93.4v5.15ZM90,125.15H82.5v-3.07H90v-4.3H93.4v4.3h7.74v3.07H93.4v4.45h9.36v3.1h-22v-3.1H90Z"/><path class="cls-2" d="M108.6,134.39c0-8.75,6-13.76,12.78-13.76a11.51,11.51,0,0,1,8.13,3.42l-3.38,4a6.7,6.7,0,0,0-4.64-2c-3.46,0-6.3,3-6.3,8.15s2.45,8.26,6.23,8.26a7,7,0,0,0,5.11-2.4l3.38,4a11.24,11.24,0,0,1-8.75,3.88C114.36,147.87,108.6,143.28,108.6,134.39Z"/><path class="cls-2" d="M135.64,121.13H145c5.9,0,10.76,2,10.76,8.54,0,6.24-4.93,9-10.58,9h-3.13v8.71h-6.44Zm9.25,12.56c3.13,0,4.64-1.45,4.64-4s-1.73-3.56-4.82-3.56h-2.63v7.58Z"/><path class="cls-2" d="M194.09,146v4.27H169.62V146h3V126.49h6.23a15.74,15.74,0,0,0,.32-1.94h-7.88v-4.23a65.57,65.57,0,0,1-2.81,6.1v24.27h-4.82V133.9c-.47.6-.94,1.16-1.4,1.66a33.83,33.83,0,0,0-2.63-5.4A36.76,36.76,0,0,0,167,117.35l4.75,1.52c-.14.46-.32.88-.5,1.34h8.39c.11-1,.18-2,.22-2.89l5.51.11c-.14.92-.29,1.87-.47,2.79h8.53v4.34H184c-.14.67-.29,1.34-.47,1.94h8.06V146Zm-17-15.84v1.34h9.68v-1.34Zm9.68,4.8h-9.68v1.38h9.68Zm-9.68,4.73v1.41h9.68v-1.41Zm0,6.31h9.68v-1.48h-9.68Z"/><polygon class="cls-2" points="90.77 41.55 92.97 48.34 100.11 48.34 94.33 52.53 96.54 59.32 90.77 55.13 84.99 59.32 87.2 52.53 81.42 48.34 88.56 48.34 90.77 41.55"/><polygon class="cls-2" points="137.23 41.55 139.44 48.34 146.58 48.34 140.8 52.53 143.01 59.32 137.23 55.13 131.46 59.32 133.67 52.53 127.89 48.34 135.03 48.34 137.23 41.55"/><polygon class="cls-2" points="114 34.17 116.21 40.96 123.34 40.96 117.57 45.16 119.78 51.94 114 47.75 108.23 51.94 110.43 45.16 104.66 40.96 111.79 40.96 114 34.17"/><g id="_群組_" data-name="&lt;群組&gt;"><g id="_群組_2" data-name="&lt;群組&gt;"><g id="_群組_3" data-name="&lt;群組&gt;"><path class="cls-2" d="M128.68,79.18h-1.23A3.58,3.58,0,0,0,131,75.6h0A3.58,3.58,0,0,0,127.45,72h-8.21c3.26-6.55,4.89-16.73-2.84-16.33-1.4,13.8-7,12.82-11.65,18.67-1.35,0-4.15,0-4.15,0V97.76h2.73a12.07,12.07,0,0,0,7.83,2.88h14.42a3.58,3.58,0,0,0,3.58-3.58h0a3.58,3.58,0,0,0-3.58-3.58h1.87A3.58,3.58,0,0,0,131,89.91h0a3.58,3.58,0,0,0-3.58-3.58h1.23a3.58,3.58,0,0,0,3.58-3.58h0A3.58,3.58,0,0,0,128.68,79.18Z"/></g></g><g id="_群組_4" data-name="&lt;群組&gt;"><path class="cls-2" d="M89.5,73.27V98.74h8.58V73.27Zm4.29,24.12a1.64,1.64,0,1,1,1.64-1.64A1.64,1.64,0,0,1,93.79,97.39Z"/></g></g></svg>