<svg id="圖層_1" data-name="圖層 1" xmlns="http://www.w3.org/2000/svg" viewBox="0 0 228 207"><defs><style>.cls-1{fill:#1047c4;}.cls-2{fill:#fff;}.cls-3{fill:#2866c9;}</style></defs><title>徽章設計</title><circle class="cls-1" cx="114" cy="103.06" r="100.52"/><path class="cls-2" d="M114,187.43a84.38,84.38,0,1,1,84.37-84.38A84.47,84.47,0,0,1,114,187.43ZM114,22.2a80.86,80.86,0,1,0,80.86,80.86A80.95,80.95,0,0,0,114,22.2Z"/><polygon class="cls-3" points="225.4 107.1 2.6 107.1 14.26 135.36 2.6 163.62 225.4 163.62 214.16 135.36 225.4 107.1"/><path class="cls-2" d="M71.26,136.47a19.6,19.6,0,0,1-4.82,8.11,19,19,0,0,0,6.62,2.86,11.85,11.85,0,0,0-2,2.61,21.37,21.37,0,0,1-6.91-3.42,25.55,25.55,0,0,1-6.8,3.6,9.27,9.27,0,0,0-1.76-2.54v2.65H52.44v-3.25c-4.32.46-8.6,1-11.88,1.34l-.29-2.89c1-.07,2.09-.18,3.28-.28V133.93h-3v-2.65H72.13v2.65H55.57v13.65a19.83,19.83,0,0,0,6.26-3.07A20.07,20.07,0,0,1,58,138.58l.86-.25H56.79v-2.58H68.67l.54-.11ZM48,129.87h-3.2v-10.8H68.06v10.8H64.71v-8.43H48Zm-1.51,4.06v2h5.9v-2Zm0,6.31h5.9v-2h-5.9Zm0,4.73c1.87-.18,3.89-.39,5.9-.63v-1.69h-5.9Zm16.56-21.84v2H49.41v-2Zm-13.68,3.74H63.13v2H49.41ZM61,138.34a16.44,16.44,0,0,0,3.09,4.3,15.61,15.61,0,0,0,3.17-4.3Z"/><path class="cls-2" d="M88.69,119a54.81,54.81,0,0,1-3.38,7.41V150.3H82V131.78A34.74,34.74,0,0,1,79.33,135a17.42,17.42,0,0,0-1.8-3.28,38.7,38.7,0,0,0,8-13.62Zm22,26.88v3.18H87v-3.18H97.29v-5.15H89.08v-3.1h8.21v-3.6h3.38v3.6h8.39v3.1h-8.39v5.15Zm-13.39-20.6H89.77v-3.07h7.52v-4.3h3.38v4.3h7.74v3.07h-7.74v4.45H110v3.1h-22v-3.1h9.21Z"/><path class="cls-2" d="M127.93,137.17c-1.22.32-2.45.64-3.71.92v7.37c0,2.33-.36,3.6-1.69,4.41s-3.06,1-5.47,1a19.28,19.28,0,0,0-1.4-4.83c1,0,2.2,0,2.63,0s.58-.14.58-.6v-6l-3.1.74-1.08-5.26c1.22-.21,2.63-.49,4.17-.81v-5.22h-3.71v-5h3.71v-6.49h5.36v6.49h3.28v5h-3.28v4.06l3.06-.71Zm19.69-13.58V150.4h-5.47v-1.48h-8.32v1.73h-5.22V123.59h5.87a44.06,44.06,0,0,0,1.12-6.14l6.26.6c-.61,1.94-1.26,3.84-1.91,5.54Zm-13.79,4.83v5.29h8.32v-5.29Zm8.32,15.66v-5.54h-8.32v5.54Z"/><path class="cls-2" d="M152.81,149a37.33,37.33,0,0,0,4.25-7.27l5.08,1.34a54.89,54.89,0,0,1-4.25,8Zm6.37-7.48h-4.9V118.62h12.09v8.47c3.42-.92,4.75-2.26,5.36-4.13h-4.57v-4.45h19s0,1.06-.07,1.62c-.25,4.69-.58,7-1.44,7.94a4,4,0,0,1-2.74,1.27,28.66,28.66,0,0,1-4.18.14,9.55,9.55,0,0,0-1.26-4.06c1.22.11,2.3.14,2.88.14a1.3,1.3,0,0,0,1-.35A4.66,4.66,0,0,0,181,123h-4.1c-.68,3.21-2.2,5.61-6.16,7.27h14.29v11H168.25V130.37a12.29,12.29,0,0,0-1.87-2.65v12.21h-7.2Zm0-18.38v3.7h2.41v-3.7Zm2.41,12.31v-4.16h-2.41v4.16Zm6.37,7.13a49.94,49.94,0,0,1,.94,7.44l-5.15.81a55.7,55.7,0,0,0-.65-7.62Zm7.67-.32a40.94,40.94,0,0,1,2,7.34l-5.25,1.06a44.37,44.37,0,0,0-1.69-7.51Zm-2.48-5.08h6.73v-2.89h-6.73Zm9.83,4.23a67.72,67.72,0,0,1,3.92,7.41l-5.08,2.08a61.12,61.12,0,0,0-3.6-7.69Z"/><polygon class="cls-2" points="90.77 41.72 92.97 48.51 100.11 48.51 94.33 52.71 96.54 59.49 90.77 55.3 84.99 59.49 87.2 52.71 81.42 48.51 88.56 48.51 90.77 41.72"/><polygon class="cls-2" points="137.23 41.72 139.44 48.51 146.58 48.51 140.8 52.71 143.01 59.49 137.23 55.3 131.46 59.49 133.67 52.71 127.89 48.51 135.03 48.51 137.23 41.72"/><polygon class="cls-2" points="114 34.34 116.21 41.13 123.34 41.13 117.57 45.33 119.78 52.11 114 47.92 108.23 52.11 110.43 45.33 104.66 41.13 111.79 41.13 114 34.34"/><g id="_群組_" data-name="&lt;群組&gt;"><g id="_群組_2" data-name="&lt;群組&gt;"><g id="_群組_3" data-name="&lt;群組&gt;"><path class="cls-2" d="M128.68,79.35h-1.23A3.58,3.58,0,0,0,131,75.77h0a3.58,3.58,0,0,0-3.58-3.58h-8.21c3.26-6.55,4.89-16.73-2.84-16.33-1.4,13.8-7,12.82-11.65,18.67-1.35,0-4.15,0-4.15,0V97.93h2.73a12.07,12.07,0,0,0,7.83,2.88h14.42a3.58,3.58,0,0,0,3.58-3.58h0a3.58,3.58,0,0,0-3.58-3.58h1.87A3.58,3.58,0,0,0,131,90.08h0a3.58,3.58,0,0,0-3.58-3.58h1.23a3.58,3.58,0,0,0,3.58-3.58h0A3.58,3.58,0,0,0,128.68,79.35Z"/></g></g><g id="_群組_4" data-name="&lt;群組&gt;"><path class="cls-2" d="M89.5,73.44V98.91h8.58V73.44Zm4.29,24.12a1.64,1.64,0,1,1,1.64-1.64A1.64,1.64,0,0,1,93.79,97.56Z"/></g></g></svg>