<?xml version="1.0" encoding="utf-8"?>
<!-- Generator: Adobe Illustrator 25.0.0, SVG Export Plug-In . SVG Version: 6.00 Build 0)  -->
<svg version="1.1" xmlns="http://www.w3.org/2000/svg" xmlns:xlink="http://www.w3.org/1999/xlink" x="0px" y="0px"
	 viewBox="0 0 520 200" style="enable-background:new 0 0 520 200;" xml:space="preserve">
<style type="text/css">
	.st0{display:none;}
	.st1{display:inline;}
	.st2{fill:#FEFEFE;}
	.st3{fill-rule:evenodd;clip-rule:evenodd;}
	.st4{fill:#FFFFFF;}
	.st5{display:inline;fill:#FFFFFF;}
	.st6{fill:#231F20;}
	.st7{fill:#EA4335;}
	.st8{fill:#FBBC05;}
	.st9{fill:#4285F4;}
	.st10{fill:#34A853;}
</style>
<g id="參考線">
</g>
<g id="圖層_1">
	<g id="Apple_logo" class="st0">
		<path class="st1" d="M171.54,142.81c0,0.12,0,0.23,0,0.35c-0.8,3.32-2.2,6.42-3.57,9.53c-2.39,5.44-5.28,10.61-8.68,15.49
			c-3.04,4.36-6.16,8.65-9.75,12.58c-2.49,2.72-5.19,5.16-8.36,7.08c-5,3.03-10.37,3.86-16.08,2.79c-3.6-0.68-7.01-1.91-10.4-3.25
			c-4.23-1.67-8.56-2.91-13.1-3.25c-3.74-0.29-7.43,0.14-11.08,1.02c-3.01,0.72-5.9,1.77-8.77,2.9c-3.18,1.25-6.4,2.33-9.77,2.88
			c-6.67,1.09-12.5-0.79-17.67-5.05c-3.92-3.23-7.3-6.96-10.39-10.96c-3.79-4.9-7.4-9.92-10.42-15.35
			c-2.94-5.3-5.41-10.8-7.51-16.48c-1.91-5.18-3.49-10.47-4.58-15.89c-0.98-4.83-1.74-9.69-1.83-14.64
			c-0.08-3.99-0.18-7.98,0.16-11.95c0.57-6.66,2.17-13.07,5.01-19.15c1.58-3.39,3.44-6.6,5.71-9.58
			c5.11-6.71,11.55-11.7,19.36-14.91c4.43-1.82,9.04-2.79,13.83-3.19c4.92-0.41,9.55,0.7,14.18,2.05c3.33,0.97,6.54,2.27,9.8,3.41
			c2.71,0.95,5.44,1.86,8.29,2.34c0.62,0.11,1.21,0.1,1.83-0.03c3.66-0.76,7.15-2.09,10.66-3.33c4.23-1.5,8.45-3.01,12.85-3.99
			c5.64-1.27,11.29-1.22,16.95-0.22c6.67,1.17,12.92,3.4,18.54,7.27c3.71,2.55,6.87,5.67,9.54,9.28c0.63,0.85,0.6,1.1-0.32,1.68
			c-3,1.92-5.85,4.04-8.36,6.57c-5.96,5.98-9.53,13.15-10.52,21.57c-0.82,7-0.1,13.82,2.48,20.4c1.6,4.09,3.98,7.69,6.9,10.97
			c4,4.49,8.7,8.01,14.16,10.53C170.95,142.42,171.29,142.55,171.54,142.81z"/>
		<path class="st2" d="M1101.48,869.33c-10.99-3.1-20.8-8.78-30.41-14.63c-40.99-24.97-74.23-57.58-96.77-100.36
			c-15.6-29.61-23.56-61.34-25.85-94.65c-2.54-36.85,1.57-72.73,14.97-107.29c17.52-45.21,48.17-79.86,87.21-107.66
			c5.43-3.86,10.97-7.6,16.69-10.99c3.52-2.09,4.08-3.55,1.44-7.12c-27.3-37.02-61.97-64.77-104.4-82.4
			c-41.97-17.43-85.79-26.11-131.32-24.01c-31.19,1.44-61.09,9.72-90.45,19.89c-27.52,9.53-54.78,19.8-82.73,28.12
			c-12.79,3.81-25.02,3.53-37.7,0.11c-27.14-7.33-53.2-17.8-79.71-26.95c-24.04-8.3-48.4-15.51-73.82-17.97
			c-30.58-2.96-60.58,1.28-89.73,10.22c-81.02,24.86-138.86,76.97-176.19,152.44c-21.4,43.25-31.82,89.42-34.81,137.36
			c-5.96,95.69,14.55,186.56,50.25,274.65c31.02,76.55,76.07,144.13,131.18,205.24c12.46,13.82,26.44,26.08,41.54,37.05
			c33.6,24.41,70.32,31.56,110.65,21.1c22.01-5.71,43.12-13.86,64.34-21.81c32.18-12.06,65.27-19.39,99.87-17.86
			c30.77,1.36,59.97,9.61,88.39,20.99c22.26,8.92,44.89,16.44,68.69,20.32c36.9,6.02,70.02-3.17,100.39-23.9
			c25.94-17.71,46.36-41.05,65.67-65.47c37.49-47.4,70.04-97.79,93.55-153.69c6.07-14.43,11.6-29.06,16.88-43.79
			c0.59-1.63,0.65-3.55,2.16-4.78c0,97.12-0.02,194.23,0.1,291.35c0,3.59-0.56,4.49-4.37,4.49c-308.97-0.12-617.95-0.12-926.92,0.01
			c-4.05,0-4.64-1-4.64-4.77c0.1-366.99,0.1-733.98-0.03-1100.96c0-4.34,1.28-4.84,5.12-4.84c228.66,0.1,457.33,0.09,685.99,0.09
			c-0.71,3.52-3.93,2.82-6.05,3.1c-19.84,2.62-38.67,8.72-57.05,16.34c-56.4,23.37-99.38,61.76-128.88,115.26
			c-15.25,27.67-25.12,57.08-28.31,88.55c-1.11,10.91-0.98,21.91-0.32,32.89c0.21,3.59,2.06,4.46,5.23,4.62
			c18.55,0.95,36.69-1.18,54.48-6.59c30.64-9.33,56.7-26.25,80.53-47.28c21.7-19.15,39.87-41.17,55.16-65.59
			c18.77-29.97,30.27-62.51,33.66-97.85c1.28-13.33,1.33-26.62,0.3-39.95c-0.1-1.31,0.07-2.52,1-3.52
			c76.72,0,153.43,0.04,230.15-0.1c4.06-0.01,4.98,0.92,4.98,4.98C1101.47,330.93,1101.48,600.13,1101.48,869.33z"/>
		<path class="st1" d="M133.33,10.73c0.77,7.36-0.64,14.3-4.17,20.78c-4.37,8-10.4,14.42-18.51,18.73
			c-4.32,2.3-8.96,3.36-13.88,3.18c-0.81-0.03-1.07-0.26-1.12-1.08c-0.48-6.84,1.17-13.19,4.35-19.19
			c6.06-11.41,15.55-18.4,27.95-21.64c1.26-0.33,2.58-0.32,3.81-0.78C132.28,10.73,132.81,10.73,133.33,10.73z"/>
	</g>
	<g id="Asus_Logo" class="st0">
		<g class="st1">
			<path class="st3" d="M288.04,88.9h0.4v27.75h-28.04V88.9H288.04L288.04,88.9z M166.03,147.58l64.84,4.02c2.7,0,4.9,2.21,4.9,4.9
				c0,2.69-2.2,4.9-4.9,4.9h-92.41v-36.12C141.3,136.43,151.07,145.56,166.03,147.58z M138.46,189.31h94.47
				c13.77,0,25.33-9.94,27.88-22.99c2.25,13.01,13.63,22.99,27.23,22.99h60.36c13.48,0,24.79-9.82,27.17-22.68v22.68h96.78
				c15.62,0,28.4-12.78,28.4-28.41v-4.02c0-15.62-12.78-28.4-28.4-28.4l-5.31-0.23c-30.11-1.32-60.13-2.84-90.2-4.39
				c2.34,11.8,12.3,21.62,27.89,23.73l65.55,4.02c2.7,0.01,4.9,2.2,4.91,4.9c-0.01,2.7-2.2,4.89-4.91,4.9h-94.25v-37.6L348,122.36
				v32.16c-0.01,4.51-3.67,8.17-8.18,8.18h-43.19c-4.51-0.01-8.17-3.67-8.18-8.18v-35.23l-28.04-1.45v31.88
				c-3.2-12.06-14.34-20.75-27.47-20.75l-123.47-8.07v68.42L138.46,189.31L138.46,189.31z M255.95,116.66v-27.9h-89.92
				c-13.28,0-24.49,9.23-27.57,21.59V88.89H84.78l-18.29,27.75h71.14L255.95,116.66L255.95,116.66z M97.62,120.21l-44.34,69.1H18.6
				l46.77-70.96L97.62,120.21L97.62,120.21z M500.75,116.66v-27.9h-96.02c-15.45,0-28.12,12.5-28.4,27.89L500.75,116.66
				L500.75,116.66z M348,116.65V88.9h28.03v27.75H348L348,116.65z"/>
		</g>
	</g>
	<g id="Benten_logo" class="st0">
		<path class="st4" d="M-7.83,201.68c0-47.2,0-94.41,0-141.61c175.94,0,351.89,0,527.83,0c0,47.2,0,94.41,0,141.61
			C344.06,201.68,168.11,201.68-7.83,201.68z M97.51,122.54c11.34-2.25,17.28-8.27,18.8-18.22c0.74-4.85,1.56-9.74,1.67-14.63
			c0.32-13.34-5.87-20.73-19.17-21.66C84.95,67.05,71,67.29,57.1,66.68c-4.6-0.2-6.25,1.36-7.02,5.9
			c-5.36,31.63-11.06,63.21-16.55,94.82c-0.68,3.89-1.47,6.92-6.44,7.04c-1.41,0.03-3.5,2.12-3.99,3.67
			c-1.13,3.58-1.48,7.42-2.26,11.79c5.68,0,10.79,0.07,15.9-0.01c15.63-0.27,31.31,0.1,46.87-1.1c14.74-1.14,20-6.63,23.37-21.15
			c1.4-6.04,2.48-12.15,3.49-18.27C113.02,133.94,111.95,131.6,97.51,122.54z M458.95,89.33c-8.19,0-16.09,0.22-23.96-0.09
			c-4.47-0.18-5.74,1.63-6.43,5.82c-2.95,17.94-6.37,35.81-9.53,53.72c-2.37,13.45-4.6,26.93-6.96,40.78c10,0,19.56,0,29.69,0
			c2.44-13.71,4.8-27.38,7.31-41.02c2.4-13.04,4.74-26.1,7.71-39.01c0.44-1.9,4.17-3.05,6.38-4.55c0.68,2.15,2.22,4.43,1.91,6.42
			c-3.13,20.29-6.56,40.54-9.92,60.8c-1.7,10.25,2.45,16.3,12.86,17.2c7.62,0.66,15.35,0.13,23.54,0.13
			c0.86-4.91,1.7-9.64,2.52-14.3c-9.29-2.61-9.2-2.59-7.69-11.86c3.09-19,6.32-37.98,8.99-57.04c1.99-14.19-6.92-21.88-20.86-18.03
			c-5.18,1.43-9.9,4.54-15.04,6.99C459.32,93.56,459.16,91.75,458.95,89.33z M224.93,189.61c3.04-17.18,5.99-34.21,9.08-51.22
			c1.72-9.47,3.37-18.97,5.75-28.28c0.53-2.09,3.97-3.43,6.07-5.12c0.89,2.25,2.69,4.59,2.49,6.75c-0.61,6.59-2,13.11-3.07,19.65
			c-2.37,14.57-5.08,29.11-6.96,43.74c-1.02,7.94,2.54,12.15,10.3,13.57c4.6,0.84,9.35,1.08,14.04,1.14
			c13.48,0.16,13.49,0.07,14.1-13.65c0.02-0.38-0.28-0.77-0.58-1.5c-4.66-0.32-8.4-1.35-7.23-7.93c3.48-19.6,6.39-39.29,9.73-58.91
			c2.5-14.7-5.67-23.11-20.29-19.65c-5.64,1.33-10.74,4.98-16.1,7.58c0.12-1.85,0.25-3.87,0.42-6.58c-8.34,0-16.26,0.23-24.15-0.09
			c-4.7-0.19-6.12,1.81-6.84,6.15c-3.43,20.69-7.21,41.33-10.84,61.98c-1.87,10.65-3.7,21.31-5.62,32.37
			C205.59,189.61,214.95,189.61,224.93,189.61z M162.97,148.89c-1.62,7.34-2.6,14.17-4.82,20.57c-0.76,2.2-4.62,3.31-7.07,4.92
			c-1.06-2.46-3.19-5.03-2.97-7.37c0.67-7.01,2.49-13.9,3.41-20.9c0.53-4.04,2.24-5.33,6.25-5.22c9.86,0.27,19.73-0.01,29.59,0.19
			c3.66,0.07,5.4-1.01,5.85-4.88c0.81-7.01,2.5-13.92,3.13-20.93c1.1-12.31-4.7-21.49-15.4-25.4c-24.16-8.83-47.51,3.27-53.97,27.98
			c-0.99,3.78-0.73,8.5-6.8,8.24c-0.55-0.02-1.49,1.86-1.74,2.97c-0.78,3.52-1.33,7.09-2.02,10.96c2.08,0.63,3.8,1.15,5.77,1.74
			c-1.09,7.52-2.19,14.68-3.17,21.86c-1.65,12.15,3.52,22.16,14.61,25.48c29.66,8.89,56.12-5.19,56.5-40.22
			C181.19,148.89,172.26,148.89,162.97,148.89z M369.13,141.83c1.48-0.41,2.09-0.72,2.7-0.73c9.22-0.06,18.44-0.04,27.66-0.12
			c10.31-0.09,9.68,1.59,11.23-9.06c0.49-3.39,1.34-6.72,1.89-10.1c2.53-15.6-1.9-26.2-12.97-31.17
			c-23.56-10.59-49.86,2.19-55.83,27.1c-0.9,3.74-0.44,8.57-6.63,8.26c-0.65-0.03-1.81,1.75-2.03,2.83
			c-0.75,3.71-1.19,7.49-1.76,11.29c2.11,0.61,3.68,1.06,5.26,1.51c-0.94,9.26-2.19,18.14-2.63,27.06
			c-0.39,7.82,3.04,14.15,9.86,18.3c14.79,9.01,40.17,4.76,51.38-8.26c7.28-8.46,8.71-18.78,10.45-30.06
			c-8.8,0-17.31-0.18-25.8,0.21c-1.14,0.05-2.64,2.83-3.13,4.58c-1.61,5.75-2.38,11.76-4.45,17.32c-0.66,1.78-4.35,2.43-6.65,3.59
			c-0.94-1.92-2.88-3.96-2.67-5.74C366.1,159.57,367.74,150.56,369.13,141.83z M297.21,108.02c-0.2,1.82-0.28,3.28-0.52,4.72
			c-3.44,20.23-6.94,40.45-10.32,60.69c-1.41,8.45,2,14.1,10.42,15.33c8.39,1.22,16.97,1.05,25.87,1.51
			c1.04-5.52,1.93-10.23,2.95-15.59c-9.3,0.66-9.23-4.4-8.07-10.69c3.11-16.8,6.1-33.63,8.78-50.51c0.68-4.26,1.76-6.74,6.63-6.42
			c1.17,0.08,3.23-1.54,3.55-2.74c1.04-3.83,1.45-7.82,2.14-11.92c-2.91-0.52-5.16-0.93-8.17-1.47c0.76-4.21,1.52-8.12,2.15-12.06
			c0.66-4.09,1.2-8.2,1.89-13.05c-5.39,0-9.86,0-14.33,0c-15.28,0.01-15.12,0.04-17.85,14.98c-0.86,4.73,0.36,11.38-7.78,11.63
			c-0.58,0.02-1.37,2.05-1.59,3.24c-0.68,3.53-1.13,7.1-1.71,10.89C293.43,107.09,295.21,107.53,297.21,108.02z"/>
		<path class="st1" d="M97.51,122.54c14.43,9.06,15.51,11.4,12.97,26.81c-1.01,6.12-2.09,12.23-3.49,18.27
			c-3.36,14.52-8.63,20.01-23.37,21.15c-15.56,1.2-31.24,0.83-46.87,1.1c-5.11,0.09-10.22,0.01-15.9,0.01
			c0.78-4.37,1.13-8.2,2.26-11.79c0.49-1.55,2.58-3.63,3.99-3.67c4.96-0.12,5.76-3.14,6.44-7.04c5.49-31.61,11.19-63.19,16.55-94.82
			c0.77-4.55,2.42-6.11,7.02-5.9c13.9,0.61,27.85,0.38,41.71,1.35c13.3,0.94,19.49,8.33,19.17,21.66
			c-0.12,4.89-0.93,9.78-1.67,14.63C114.79,114.27,108.86,120.29,97.51,122.54z M64.78,168.84c7.26,0.6,11.05-1.92,12.23-7.97
			c1.14-5.88,2.42-11.74,3.2-17.67c1.01-7.68-0.93-9.27-9.66-8.06C68.65,146.17,66.74,157.38,64.78,168.84z M74.31,114.22
			c0.56,0.63,1.12,1.27,1.68,1.9c2.84-1.3,7.46-1.97,8.2-4.03c2.26-6.31,3.42-13.11,4.08-19.82c0.14-1.39-3.51-3.56-5.78-4.58
			c-0.78-0.35-3.6,1.51-3.86,2.7C76.94,98.29,75.7,106.27,74.31,114.22z"/>
		<path class="st1" d="M458.95,89.33c0.21,2.42,0.37,4.23,0.53,5.97c5.14-2.45,9.86-5.56,15.04-6.99
			c13.94-3.84,22.85,3.84,20.86,18.03c-2.67,19.06-5.9,38.04-8.99,57.04c-1.51,9.27-1.6,9.25,7.69,11.86
			c-0.82,4.66-1.65,9.39-2.52,14.3c-8.19,0-15.92,0.53-23.54-0.13c-10.41-0.9-14.57-6.95-12.86-17.2
			c3.37-20.26,6.79-40.51,9.92-60.8c0.31-2-1.23-4.27-1.91-6.42c-2.21,1.5-5.94,2.64-6.38,4.55c-2.96,12.91-5.3,25.97-7.71,39.01
			c-2.51,13.64-4.88,27.31-7.31,41.02c-10.13,0-19.7,0-29.69,0c2.36-13.85,4.59-27.33,6.96-40.78c3.16-17.91,6.57-35.78,9.53-53.72
			c0.69-4.19,1.96-6,6.43-5.82C442.86,89.55,450.76,89.33,458.95,89.33z"/>
		<path class="st1" d="M224.93,189.61c-9.98,0-19.35,0-29.71,0c1.92-11.06,3.74-21.72,5.62-32.37c3.63-20.66,7.41-41.29,10.84-61.98
			c0.72-4.35,2.15-6.34,6.84-6.15c7.89,0.32,15.81,0.09,24.15,0.09c-0.17,2.71-0.3,4.73-0.42,6.58c5.36-2.6,10.46-6.24,16.1-7.58
			c14.63-3.46,22.8,4.96,20.29,19.65c-3.34,19.62-6.25,39.32-9.73,58.91c-1.17,6.57,2.56,7.61,7.23,7.93
			c0.29,0.73,0.59,1.12,0.58,1.5c-0.61,13.72-0.62,13.81-14.1,13.65c-4.69-0.05-9.44-0.3-14.04-1.14
			c-7.76-1.42-11.33-5.63-10.3-13.57c1.89-14.64,4.59-29.17,6.96-43.74c1.07-6.55,2.46-13.06,3.07-19.65
			c0.2-2.15-1.6-4.49-2.49-6.75c-2.1,1.69-5.54,3.03-6.07,5.12c-2.38,9.31-4.03,18.81-5.75,28.28
			C230.92,155.4,227.97,172.43,224.93,189.61z"/>
		<path class="st1" d="M162.97,148.89c9.29,0,18.22,0,27.16,0c-0.38,35.02-26.84,49.1-56.5,40.22
			c-11.09-3.32-16.26-13.34-14.61-25.48c0.98-7.18,2.07-14.34,3.17-21.86c-1.97-0.6-3.69-1.12-5.77-1.74
			c0.69-3.87,1.23-7.44,2.02-10.96c0.25-1.11,1.18-2.99,1.74-2.97c6.07,0.26,5.81-4.46,6.8-8.24c6.47-24.7,29.82-36.81,53.97-27.98
			c10.69,3.91,16.5,13.09,15.4,25.4c-0.63,7.01-2.32,13.93-3.13,20.93c-0.45,3.87-2.19,4.95-5.85,4.88
			c-9.86-0.2-19.73,0.08-29.59-0.19c-4.01-0.11-5.71,1.18-6.25,5.22c-0.92,7-2.74,13.89-3.41,20.9c-0.22,2.34,1.91,4.91,2.97,7.37
			c2.45-1.61,6.31-2.73,7.07-4.92C160.36,163.06,161.35,156.23,162.97,148.89z M155.57,124.12c9.45,1.93,9.57,1.88,10.85-6.19
			c0.4-2.52,1.14-5.14,0.78-7.57c-0.28-1.88-2.02-3.55-3.11-5.31c-1.73,1.26-4.45,2.18-5.01,3.83
			C157.47,113.67,156.74,118.75,155.57,124.12z"/>
		<path class="st1" d="M369.13,141.83c-1.4,8.73-3.04,17.74-4.12,26.82c-0.21,1.78,1.72,3.82,2.67,5.74
			c2.3-1.17,5.99-1.81,6.65-3.59c2.07-5.55,2.84-11.57,4.45-17.32c0.49-1.75,1.99-4.53,3.13-4.58c8.49-0.39,17-0.21,25.8-0.21
			c-1.74,11.28-3.16,21.6-10.45,30.06c-11.22,13.02-36.59,17.27-51.38,8.26c-6.82-4.15-10.25-10.48-9.86-18.3
			c0.45-8.92,1.7-17.81,2.63-27.06c-1.58-0.45-3.14-0.9-5.26-1.51c0.57-3.8,1-7.58,1.76-11.29c0.22-1.08,1.38-2.86,2.03-2.83
			c6.19,0.3,5.74-4.52,6.63-8.26c5.96-24.92,32.26-37.69,55.83-27.1c11.07,4.97,15.5,15.58,12.97,31.17
			c-0.55,3.38-1.4,6.72-1.89,10.1c-1.55,10.66-0.91,8.97-11.23,9.06c-9.22,0.08-18.44,0.06-27.66,0.12
			C371.22,141.11,370.61,141.43,369.13,141.83z M372.5,123.92c0.59,0.75,1.18,1.51,1.77,2.26c2.75-1.4,6.72-2.13,7.96-4.37
			c1.74-3.15,1.86-7.42,1.87-11.22c0-1.85-1.81-3.71-2.8-5.56c-1.9,1.33-4.89,2.28-5.5,4.06
			C374.16,113.85,373.53,118.96,372.5,123.92z"/>
		<path class="st1" d="M297.21,108.02c-2.01-0.49-3.78-0.93-5.94-1.46c0.58-3.8,1.03-7.37,1.71-10.89c0.23-1.19,1.01-3.22,1.59-3.24
			c8.14-0.24,6.91-6.89,7.78-11.63c2.73-14.94,2.57-14.97,17.85-14.98c4.47,0,8.94,0,14.33,0c-0.7,4.85-1.23,8.96-1.89,13.05
			c-0.63,3.94-1.4,7.85-2.15,12.06c3.01,0.54,5.26,0.95,8.17,1.47c-0.68,4.1-1.1,8.09-2.14,11.92c-0.32,1.2-2.39,2.81-3.55,2.74
			c-4.88-0.32-5.95,2.16-6.63,6.42c-2.69,16.87-5.67,33.71-8.78,50.51c-1.16,6.29-1.24,11.35,8.07,10.69
			c-1.01,5.35-1.9,10.07-2.95,15.59c-8.9-0.46-17.49-0.29-25.87-1.51c-8.42-1.23-11.83-6.88-10.42-15.33
			c3.38-20.24,6.89-40.46,10.32-60.69C296.94,111.3,297.02,109.84,297.21,108.02z"/>
		<path class="st5" d="M64.78,168.84c1.96-11.46,3.88-22.67,5.76-33.7c8.73-1.21,10.67,0.38,9.66,8.06
			c-0.78,5.93-2.05,11.79-3.2,17.67C75.83,166.92,72.04,169.44,64.78,168.84z"/>
		<path class="st5" d="M74.31,114.22c1.39-7.95,2.63-15.93,4.32-23.81c0.26-1.2,3.08-3.05,3.86-2.7c2.26,1.02,5.91,3.18,5.78,4.58
			c-0.67,6.7-1.82,13.51-4.08,19.82c-0.74,2.06-5.35,2.73-8.2,4.03C75.43,115.49,74.87,114.85,74.31,114.22z"/>
		<path class="st5" d="M155.57,124.12c1.16-5.38,1.9-10.45,3.5-15.24c0.55-1.65,3.27-2.57,5.01-3.83c1.09,1.76,2.84,3.43,3.11,5.31
			c0.36,2.43-0.38,5.05-0.78,7.57C165.15,126,165.03,126.05,155.57,124.12z"/>
		<path class="st5" d="M372.5,123.92c1.03-4.97,1.66-10.07,3.3-14.83c0.61-1.77,3.6-2.73,5.5-4.06c0.99,1.85,2.8,3.71,2.8,5.56
			c-0.01,3.79-0.13,8.07-1.87,11.22c-1.24,2.24-5.21,2.97-7.96,4.37C373.68,125.43,373.09,124.68,372.5,123.92z"/>
	</g>
	<g id="Belkin" class="st0">
		<g class="st1">
			<path class="st6" d="M500.19,144.48v33.77h-16.1v-33.77c0-9.16-3.52-14.59-12.33-14.59c-8.81,0-12.33,5.52-12.33,14.59v33.77
				h-16.1v-33.77c0-18.92,9.48-29.7,28.52-29.7C490.72,114.78,500.19,125.39,500.19,144.48 M327.07,93.49h16.1v84.85h-16.1V93.49z
				 M410.61,116.99h-18.54l-21.72,27.15V93.57h-16.1v84.77h16.1v-29.36l21.72,29.36h19.63l-25.08-33.01L410.61,116.99z
				 M417.83,116.99h16.1v61.43h-16.1V116.99z M83.58,80.42c7.88,0,14.18-6.45,14.18-14.34s-6.29-14.34-14.18-14.34
				c-7.8,0-14.18,6.45-14.18,14.34C69.41,74.06,75.78,80.42,83.58,80.42 M71,94.76c-5.2,0-9.48,4.33-9.48,9.59s4.19,9.59,9.48,9.59
				c5.2,0,9.48-4.24,9.48-9.59C80.48,99.09,76.2,94.76,71,94.76 M28.98,90.52c-5.28,0-9.48,4.33-9.48,9.59
				c0,5.26,4.19,9.59,9.48,9.59s9.48-4.33,9.48-9.59C38.37,94.84,34.18,90.52,28.98,90.52 M86.77,104.35c0,5.26,4.19,9.59,9.48,9.59
				c5.2,0,9.48-4.24,9.48-9.59c0-5.26-4.19-9.59-9.48-9.59C90.96,94.76,86.77,99.09,86.77,104.35 M138.27,90.52
				c-5.2,0-9.48,4.24-9.48,9.59c0,5.26,4.19,9.59,9.48,9.59c5.2,0,9.48-4.33,9.48-9.59C147.75,94.84,143.47,90.52,138.27,90.52
				 M71,120.3c-5.2,0-9.48,4.33-9.48,9.59c0,5.26,4.19,9.59,9.48,9.59c5.2,0,9.48-4.33,9.48-9.59C80.48,124.63,76.2,120.3,71,120.3
				 M105.64,129.89c0-5.26-4.19-9.59-9.48-9.59c-5.2,0-9.48,4.33-9.48,9.59c0,5.26,4.19,9.59,9.48,9.59S105.64,135.15,105.64,129.89
				 M58.42,171.38c-5.2,0-9.48,4.33-9.48,9.59c0,5.26,4.28,9.59,9.48,9.59s9.48-4.24,9.48-9.59
				C67.81,175.62,63.62,171.38,58.42,171.38 M108.83,171.38c-5.2,0-9.48,4.33-9.48,9.59c0,5.26,4.28,9.59,9.48,9.59
				c5.2,0,9.48-4.24,9.48-9.59S114.03,171.38,108.83,171.38 M425.88,90.43c-5.12,0-9.31,4.24-9.31,9.42c0,5.18,4.19,9.42,9.31,9.42
				s9.31-4.24,9.31-9.42C435.19,94.67,431,90.43,425.88,90.43"/>
			<path class="st6" d="M425.88,90.43c-5.12,0-9.31,4.24-9.31,9.42s4.19,9.42,9.31,9.42c5.12,0,9.31-4.24,9.31-9.42
				S431,90.43,425.88,90.43 M221.14,114.87c-8.89,0-15.6,4.07-18.96,8.4V92.72h-16.78v54.47c0,19.35,13.34,32.84,32.29,32.84
				s32.38-13.41,32.38-32.58C250.08,128.02,238.5,114.87,221.14,114.87L221.14,114.87z M217.78,164.93c-9.14,0-16.1-7.55-16.1-17.48
				s6.96-17.48,16.1-17.48s16.02,7.55,16.02,17.48C233.89,157.46,226.93,164.93,217.78,164.93z M318.6,148.39
				c0-21.13-11.41-33.6-30.53-33.6c-18.12,0-31.79,14.26-31.79,33.18c0,19.18,13.08,32.07,32.71,32.07
				c11.57,0,19.54-4.33,24.24-8.15l-8.22-11.29c-4.45,3.9-9.73,5.52-16.1,5.52c-8.64,0-15.6-5.52-16.44-13.15h45.88
				C318.52,152.12,318.6,149.74,318.6,148.39L318.6,148.39z M272.64,141.94c1.09-7.64,6.21-13.58,14.93-13.58
				c8.81,0,13.67,5.94,14.76,13.58H272.64z"/>
		</g>
	</g>
	<g>
		<path class="st7" d="M225.57,115.91c0,22.63-17.7,39.3-39.43,39.3s-39.43-16.68-39.43-39.3c0-22.79,17.7-39.3,39.43-39.3
			S225.57,93.12,225.57,115.91z M208.31,115.91c0-14.14-10.26-23.82-22.17-23.82s-22.17,9.68-22.17,23.82
			c0,14,10.26,23.82,22.17,23.82S208.31,129.89,208.31,115.91z"/>
		<path class="st8" d="M310.63,115.91c0,22.63-17.7,39.3-39.43,39.3s-39.43-16.68-39.43-39.3c0-22.77,17.7-39.3,39.43-39.3
			S310.63,93.12,310.63,115.91z M293.37,115.91c0-14.14-10.26-23.82-22.17-23.82s-22.17,9.68-22.17,23.82
			c0,14,10.26,23.82,22.17,23.82S293.37,129.89,293.37,115.91z"/>
		<path class="st9" d="M392.14,78.98v70.56c0,29.03-17.12,40.88-37.35,40.88c-19.05,0-30.51-12.74-34.84-23.16l15.03-6.26
			c2.68,6.4,9.23,13.95,19.79,13.95c12.95,0,20.98-7.99,20.98-23.04v-5.65h-0.6c-3.86,4.77-11.31,8.93-20.7,8.93
			c-19.65,0-37.66-17.12-37.66-39.14c0-22.19,18-39.45,37.66-39.45c9.37,0,16.82,4.16,20.7,8.79h0.6V79h16.39L392.14,78.98z
			 M376.97,116.05c0-13.84-9.23-23.96-20.98-23.96c-11.91,0-21.88,10.12-21.88,23.96c0,13.7,9.98,23.67,21.88,23.67
			C367.74,139.73,376.97,129.75,376.97,116.05z"/>
		<path class="st10" d="M419.17,37.62V152.8h-16.83V37.62L419.17,37.62z"/>
		<path class="st7" d="M484.77,128.85l13.4,8.93c-4.32,6.4-14.74,17.42-32.75,17.42c-22.33,0-39-17.26-39-39.3
			c0-23.37,16.82-39.3,37.07-39.3c20.4,0,30.37,16.23,33.63,25l1.79,4.47l-52.54,21.76c4.02,7.89,10.28,11.91,19.05,11.91
			C474.21,139.73,480.3,135.4,484.77,128.85L484.77,128.85z M443.53,114.71l35.12-14.58c-1.93-4.91-7.74-8.33-14.58-8.33
			C455.3,91.79,443.09,99.54,443.53,114.71z"/>
		<path class="st9" d="M82.99,105.69V89.01h56.19c0.55,2.91,0.83,6.34,0.83,10.07c0,12.51-3.42,27.98-14.44,39
			c-10.72,11.16-24.42,17.12-42.56,17.12c-33.63,0-61.92-27.4-61.92-61.03s28.28-61.03,61.92-61.03c18.61,0,31.86,7.3,41.82,16.82
			l-11.77,11.77c-7.14-6.7-16.82-11.91-30.07-11.91c-24.56,0-43.77,19.79-43.77,44.35s19.21,44.35,43.77,44.35
			c15.93,0,25-6.4,30.82-12.21c4.71-4.71,7.81-11.45,9.04-20.64L82.99,105.69z"/>
	</g>
</g>
<g id="圖層_3">
</g>
</svg>
